# Blender 3.4.1
# www.blender.org
mtllib Bush.mtl
o Cube
v -0.050000 -0.463247 0.050000
v -0.050000 -0.363247 0.050000
v -0.050000 -0.463247 -0.050000
v -0.050000 -0.363247 -0.050000
v 0.050000 -0.463247 0.050000
v 0.050000 -0.363247 0.050000
v 0.050000 -0.463247 -0.050000
v 0.050000 -0.363247 -0.050000
v -0.050000 -0.293390 0.050000
v -0.050000 -0.293390 -0.050000
v 0.050000 -0.293390 -0.050000
v 0.050000 -0.293390 0.050000
v -0.050000 -0.363247 -0.123309
v 0.050000 -0.363247 -0.123309
v -0.050000 -0.293390 -0.123309
v 0.050000 -0.293390 -0.123309
v -0.050000 -0.363247 -0.214520
v 0.050000 -0.363247 -0.214520
v -0.050000 -0.293390 -0.214520
v 0.050000 -0.293390 -0.214520
v -0.050000 -0.224836 -0.123309
v 0.050000 -0.224836 -0.123309
v -0.050000 -0.224836 -0.214520
v 0.050000 -0.224836 -0.214520
v 0.117056 -0.293390 -0.214520
v 0.117056 -0.293390 -0.123309
v 0.117056 -0.224836 -0.214520
v 0.117056 -0.224836 -0.123309
v 0.050000 -0.136335 -0.214520
v 0.050000 -0.136335 -0.123309
v 0.117056 -0.136335 -0.214520
v 0.117056 -0.136335 -0.123309
v -0.121806 -0.363247 0.050000
v -0.121806 -0.363247 -0.050000
v -0.121806 -0.293390 0.050000
v -0.121806 -0.293390 -0.050000
v -0.050000 -0.246342 0.050000
v -0.050000 -0.246342 -0.050000
v -0.121806 -0.246342 0.050000
v -0.121806 -0.246342 -0.050000
v -0.050000 -0.206562 0.050000
v -0.050000 -0.206562 -0.050000
v -0.121806 -0.206562 0.050000
v -0.121806 -0.206562 -0.050000
v 0.025391 -0.246342 0.050000
v 0.025391 -0.246342 -0.050000
v 0.025391 -0.206562 0.050000
v 0.025391 -0.206562 -0.050000
v -0.050000 -0.124612 0.050000
v -0.050000 -0.124612 -0.050000
v 0.025391 -0.124612 0.050000
v 0.025391 -0.124612 -0.050000
v 0.105994 -0.363247 -0.050000
v 0.105994 -0.363247 0.050000
v 0.105994 -0.293390 -0.050000
v 0.105994 -0.293390 0.050000
v 0.050000 -0.363247 0.123494
v 0.050000 -0.293390 0.123494
v 0.105994 -0.363247 0.123494
v 0.105994 -0.293390 0.123494
v 0.105994 -0.248837 0.050000
v 0.050000 -0.248837 0.050000
v 0.105994 -0.248837 0.123494
v 0.050000 -0.248837 0.123494
v 0.105994 -0.293390 0.173021
v 0.050000 -0.293390 0.173021
v 0.105994 -0.248837 0.173021
v 0.050000 -0.248837 0.173021
v 0.153752 -0.248837 0.123494
v 0.153752 -0.293390 0.123494
v 0.153752 -0.248837 0.173021
v 0.153752 -0.293390 0.173021
v 0.105994 -0.178953 0.123494
v 0.105994 -0.178953 0.173021
v 0.153752 -0.178953 0.123494
v 0.153752 -0.178953 0.173021
v 0.105994 -0.142424 0.123494
v 0.105994 -0.142424 0.173021
v 0.153752 -0.142424 0.123494
v 0.153752 -0.142424 0.173021
v 0.190976 -0.178953 0.123494
v 0.190976 -0.178953 0.173021
v 0.190976 -0.142424 0.123494
v 0.190976 -0.142424 0.173021
v 0.153752 -0.178953 0.206929
v 0.105994 -0.178953 0.206929
v 0.153752 -0.142424 0.206929
v 0.105994 -0.142424 0.206929
vn -1.0000 -0.0000 -0.0000
vn -0.0000 -0.0000 -1.0000
vn 1.0000 -0.0000 -0.0000
vn -0.0000 -0.0000 1.0000
vn -0.0000 -1.0000 -0.0000
vn -0.0000 1.0000 -0.0000
vt 0.863571 0.719706
vt 0.095279 0.000000
vt 0.733898 0.265379
vt 0.863571 0.852396
vt 0.095279 0.132690
vt 0.730881 0.719706
vt 0.730881 0.727294
vt 0.733898 0.132690
vt 0.730881 0.852396
vt 0.730881 0.859984
vt 0.095279 0.000000
vt 0.598192 0.519389
vt 0.574861 0.749352
vt 0.227969 0.132690
vt 0.733898 0.000000
vt 0.227969 0.000000
vt 0.866587 0.265379
vt 0.733898 0.132690
vt 0.227969 0.132690
vt 0.132690 0.803689
vt 0.598192 0.727294
vt 0.866587 0.000000
vt 0.866587 0.132690
vt 0.598192 0.859984
vt 0.866587 0.132690
vt 0.730881 0.519389
vt 0.730881 0.719706
vt 0.132690 0.671000
vt 0.687168 0.208396
vt 0.598192 0.531052
vt 0.095279 0.225382
vt 0.598192 0.398362
vt 0.482169 0.749352
vt 0.227969 0.225382
vt 0.823573 0.719706
vt 0.465502 0.398362
vt 0.687168 0.301089
vt 0.882691 0.716902
vt 0.465502 0.531052
vt 0.227969 0.225382
vt 0.574861 0.652079
vt 0.598192 0.422116
vt 0.730881 0.422116
vt 0.730881 0.622433
vt 0.598192 0.301089
vt 0.208396 0.449333
vt 0.482169 0.652079
vt 0.465502 0.301089
vt 0.823573 0.622433
vt 0.841591 0.973423
vt 0.208396 0.582023
vt 0.574861 0.531052
vt 0.612870 0.000000
vt 0.598192 0.301089
vt 0.480181 0.000000
vt 0.730881 0.301089
vt 0.730881 0.501405
vt 0.612870 0.092692
vt 0.482169 0.531052
vt 0.823573 0.501405
vt 0.841591 0.852396
vt 0.480181 0.092692
vt 0.391204 0.882042
vt 0.117432 0.449333
vt 0.391204 0.652079
vt 0.391204 0.749352
vt 0.117432 0.582023
vt 0.325828 0.952415
vt 0.512231 0.882042
vt 0.612870 0.183657
vt 0.391204 0.531052
vt 0.512231 0.749352
vt 0.325828 0.831388
vt 0.480181 0.183657
vt 0.930567 0.852396
vt 0.733898 0.000000
vt 0.391204 0.092692
vt 0.930567 0.973423
vt 0.612870 0.000000
vt 0.208396 0.671000
vt 0.733898 0.090965
vt 0.391204 0.183657
vt 0.117432 0.671000
vt 0.612870 0.090965
vt 0.955564 0.132690
vt 0.208396 0.831388
vt 0.480181 0.301089
vt 0.000000 0.582023
vt 0.955564 0.253717
vt 0.208396 0.952415
vt 0.866587 0.132690
vt 0.733898 0.208396
vt 0.391204 0.301089
vt 0.000000 0.671000
vt 0.866587 0.253717
vt 0.612870 0.208396
vt 0.730881 0.519389
vt 0.000000 0.132690
vt 0.000000 0.000000
vt 0.598192 0.519389
vt 0.323248 0.132690
vt 0.730881 0.612082
vt 0.000000 0.225382
vt 0.598192 0.612082
vt 0.323248 0.225382
vt 0.863571 0.852396
vt 0.095279 0.287810
vt 0.863571 0.719706
vt 0.227969 0.287810
vt 0.000000 0.287810
vt 0.730881 0.674510
vt 0.323248 0.287810
vt 0.598192 0.674510
vt 0.866587 0.132690
vt 0.095279 0.340595
vt 0.952382 0.433778
vt 0.866587 0.000000
vt 0.227969 0.340595
vt 0.952382 0.301089
vt 0.000000 0.340595
vt 0.961866 0.132690
vt 0.730881 0.727294
vt 0.961866 0.000000
vt 0.323248 0.340595
vt 0.598192 0.727294
vt 0.963607 0.852396
vt 0.000000 0.671000
vt 0.195315 0.287810
vt 0.963607 0.719706
vt 0.132690 0.671000
vt 0.127933 0.287810
vt 0.195315 0.340595
vt 0.000000 0.723784
vt 0.127933 0.340595
vt 0.132690 0.723784
vt 0.100036 0.965213
vt 0.095279 0.449333
vt 0.843644 0.433778
vt 0.227969 0.449333
vt 0.100036 0.832523
vt 0.843644 0.301089
vt 0.000000 0.965213
vt 0.195315 0.449333
vt 0.000000 0.832523
vt 0.127933 0.449333
vt 0.000000 0.832523
vt 0.132690 0.832523
vt 0.208396 0.449333
vt 0.206987 0.671000
vt 0.612870 0.208396
vt 0.206987 0.803689
vt 0.208396 0.582023
vt 0.301089 0.449333
vt 0.391204 0.398362
vt 0.612870 0.301089
vt 0.882691 0.642604
vt 0.391204 0.531052
vt 0.301089 0.582023
vt 0.598192 0.859984
vt 0.325487 0.132690
vt 0.132690 0.901208
vt 0.598192 0.952676
vt 0.996284 0.852396
vt 0.325487 0.225382
vt 0.672489 0.859984
vt 0.206987 0.901208
vt 0.208396 0.679542
vt 0.672489 0.952676
vt 0.301089 0.679542
vt 0.843644 0.301089
vt 0.996284 0.926694
vt 0.823573 0.642604
vt 0.512231 0.749352
vt 0.360207 0.582023
vt 0.823573 0.716902
vt 0.586529 0.749352
vt 0.227969 0.284500
vt 0.360207 0.679542
vt 0.512231 0.846871
vt 0.843644 0.360207
vt 0.934283 0.642604
vt 0.586529 0.846871
vt 0.325487 0.284500
vt 0.282694 0.679542
vt 0.930567 0.926694
vt 0.208396 0.679542
vt 0.930567 0.852396
vt 0.391204 0.225382
vt 0.512231 0.912588
vt 0.868566 0.642604
vt 0.282694 0.738660
vt 0.208396 0.738660
vt 0.586529 0.912588
vt 0.391204 0.284500
vt 0.780274 0.360207
vt 1.000000 0.560523
vt 1.000000 0.501405
vt 0.780274 0.301089
vt 0.996284 0.990064
vt 0.934283 0.560523
vt 0.346064 0.738660
vt 0.346064 0.679542
vt 0.934283 0.501405
vt 0.930567 0.990064
vt 0.843644 0.452935
vt 0.934283 0.549876
vt 0.282694 0.831388
vt 0.868566 0.549876
vt 0.732161 0.208396
vt 1.000000 0.653251
vt 0.843644 0.433778
vt 0.780274 0.452935
vt 0.934283 0.653251
vt 0.346064 0.831388
vt 0.391057 0.679542
vt 0.931162 0.642604
vt 0.843644 0.499495
vt 0.732161 0.271766
vt 0.843644 0.501405
vt 0.730881 0.852396
vt 0.934283 0.501405
vt 0.796598 0.852396
vt 0.868566 0.501405
vt 0.730881 0.915766
vt 0.780273 0.501405
vt 0.391057 0.728013
vt 0.882692 0.642604
vt 0.796598 0.915766
vt 0.325828 0.831388
vt 0.893036 0.433778
vt 0.730881 0.452935
vt 0.325828 0.897105
vt 0.931162 0.691997
vt 0.893036 0.499495
vt 0.730881 0.965158
vt 0.374299 0.831388
vt 0.730881 0.501405
vt 0.796598 0.965158
vt 0.374299 0.897105
vt 0.882692 0.691997
vt 0.346064 0.679542
vt 0.730881 0.923354
vt 0.687168 0.271766
vt 0.730881 0.859984
vt 0.823574 0.549876
vt 0.687168 0.208396
vt 0.346064 0.728013
vt 0.682410 0.923354
vt 0.841591 0.915766
vt 0.682410 0.859984
vt 0.841591 0.852396
vt 0.823574 0.501405
s 0
f 1/1/1 2/4/1 4/9/1 3/6/1
f 3/7/2 4/10/2 8/24/2 7/21/2
f 7/22/3 8/25/3 6/18/3 5/15/3
f 5/16/4 6/19/4 2/5/4 1/2/4
f 3/8/5 7/23/5 5/17/5 1/3/5
f 4/11/5 2/5/5 33/98/5 34/99/5
f 11/36/6 10/32/6 9/30/6 12/39/6
f 2/5/4 6/19/4 12/40/4 9/31/4
f 10/32/6 11/36/6 16/48/6 15/45/6
f 56/156/2 12/38/2 62/175/2 61/172/2
f 13/41/1 15/47/1 19/59/1 17/52/1
f 8/26/5 4/12/5 13/42/5 14/43/5
f 11/35/3 8/27/3 14/44/3 16/49/3
f 4/13/1 10/33/1 15/47/1 13/41/1
f 18/55/2 17/53/2 19/58/2 20/62/2
f 14/43/5 13/42/5 17/54/5 18/56/5
f 16/49/3 14/44/3 18/57/3 20/60/3
f 16/50/5 20/61/5 25/75/5 26/78/5
f 21/63/6 22/66/6 24/72/6 23/69/6
f 20/62/2 19/58/2 23/70/2 24/74/2
f 15/46/4 16/51/4 22/67/4 21/64/4
f 19/59/1 15/47/1 21/65/1 23/71/1
f 26/79/3 25/76/3 27/81/3 28/84/3
f 20/62/2 24/74/2 27/82/2 25/77/2
f 22/67/4 16/51/4 26/80/4 28/83/4
f 22/67/4 28/83/4 32/94/4 30/88/4
f 29/85/6 30/89/6 32/95/6 31/91/6
f 28/84/3 27/81/3 31/92/3 32/96/3
f 24/73/1 22/68/1 30/90/1 29/86/1
f 27/82/2 24/74/2 29/87/2 31/93/2
f 34/100/1 33/97/1 35/102/1 36/104/1
f 2/5/4 9/31/4 35/103/4 33/98/4
f 36/104/1 35/102/1 39/111/1 40/113/1
f 10/34/2 4/14/2 34/101/2 36/105/2
f 39/110/4 37/107/4 41/115/4 43/120/4
f 35/103/4 9/31/4 37/107/4 39/110/4
f 9/31/3 10/34/3 38/109/3 37/107/3
f 10/34/2 36/105/2 40/112/2 38/109/2
f 41/114/6 42/117/6 44/123/6 43/121/6
f 37/106/5 38/108/5 46/129/5 45/126/5
f 38/109/2 40/112/2 44/124/2 42/118/2
f 40/113/1 39/111/1 43/122/1 44/125/1
f 45/127/3 46/130/3 48/135/3 47/133/3
f 38/109/2 42/118/2 48/134/2 46/131/2
f 41/115/4 37/107/4 45/128/4 47/132/4
f 48/134/2 42/118/2 50/139/2 52/145/2
f 50/140/6 49/136/6 51/142/6 52/146/6
f 41/115/4 47/132/4 51/143/4 49/137/4
f 42/119/1 41/116/1 49/138/1 50/141/1
f 47/133/3 48/135/3 52/147/3 51/144/3
f 54/152/3 53/148/3 55/153/3 56/158/3
f 11/36/6 12/39/6 56/157/6 55/154/6
f 6/20/5 8/28/5 53/149/5 54/151/5
f 8/29/2 11/37/2 55/155/2 53/150/2
f 58/162/4 57/159/4 59/165/4 60/168/4
f 12/40/1 6/19/1 57/160/1 58/164/1
f 6/20/5 54/151/5 59/166/5 57/161/5
f 54/152/3 56/158/3 60/169/3 59/167/3
f 61/173/6 62/176/6 64/182/6 63/179/6
f 12/40/1 58/164/1 64/183/1 62/177/1
f 60/169/3 56/158/3 61/174/3 63/178/3
f 67/191/4 65/184/4 72/202/4 71/201/4
f 66/186/4 65/184/4 67/191/4 68/192/4
f 63/179/6 64/182/6 68/193/6 67/189/6
f 58/163/5 60/171/5 65/185/5 66/187/5
f 64/183/1 58/164/1 66/188/1 68/194/1
f 70/197/3 69/196/3 71/200/3 72/203/3
f 60/170/2 63/180/2 69/195/2 70/198/2
f 69/195/2 63/180/2 73/205/2 75/212/2
f 65/185/5 60/171/5 70/199/5 72/204/5
f 75/212/2 73/205/2 77/219/2 79/225/2
f 71/200/3 69/196/3 75/210/3 76/213/3
f 63/181/1 67/190/1 74/208/1 73/206/1
f 67/191/4 71/201/4 76/214/4 74/207/4
f 77/220/6 78/222/6 80/228/6 79/224/6
f 79/224/6 80/228/6 84/238/6 83/235/6
f 76/215/3 80/226/3 87/247/3 85/241/3
f 73/206/1 74/208/1 78/223/1 77/221/1
f 82/232/3 81/229/3 83/236/3 84/239/3
f 80/227/4 76/216/4 82/233/4 84/240/4
f 76/217/5 75/211/5 81/230/5 82/234/5
f 75/212/2 79/225/2 83/237/2 81/231/2
f 86/244/4 85/242/4 87/248/4 88/250/4
f 80/228/6 78/222/6 88/251/6 87/249/6
f 78/223/1 74/208/1 86/245/1 88/252/1
f 74/209/5 76/218/5 85/243/5 86/246/5
o Cube.004
v -0.229722 -0.306335 0.174410
v -0.229722 0.004869 0.174410
v -0.229722 -0.306335 -0.136794
v -0.229722 0.004869 -0.136794
v 0.081482 -0.306335 0.174410
v 0.081482 0.004869 0.174410
v 0.081482 -0.306335 -0.136794
v 0.081482 0.004869 -0.136794
v -0.005886 -0.309908 0.290315
v -0.005886 -0.059908 0.290315
v -0.005886 -0.309908 0.040315
v -0.005886 -0.059908 0.040315
v 0.244114 -0.309908 0.290315
v 0.244114 -0.059908 0.290315
v 0.244114 -0.309908 0.040315
v 0.244114 -0.059908 0.040315
v 0.011904 -0.332446 -0.124183
v 0.011904 -0.164519 -0.124183
v 0.011904 -0.332446 -0.292110
v 0.011904 -0.164519 -0.292110
v 0.179832 -0.332446 -0.124183
v 0.179832 -0.164519 -0.124183
v 0.179832 -0.332446 -0.292110
v 0.179832 -0.164519 -0.292110
v 0.156190 -0.332446 0.175881
v 0.156190 -0.164519 0.175881
v 0.156190 -0.332446 0.007953
v 0.156190 -0.164519 0.007953
v 0.324118 -0.332446 0.175881
v 0.324118 -0.164519 0.175881
v 0.324118 -0.332446 0.007953
v 0.324118 -0.164519 0.007953
vn -1.0000 -0.0000 -0.0000
vn -0.0000 -0.0000 -1.0000
vn 1.0000 -0.0000 -0.0000
vn -0.0000 -0.0000 1.0000
vn -0.0000 -1.0000 -0.0000
vn -0.0000 1.0000 -0.0000
vt 0.735436 0.000000
vt 0.245145 0.000000
vt 0.245145 0.490290
vt 0.735436 0.245145
vt 0.245145 0.245145
vt 0.245145 0.735436
vt 0.490290 0.000000
vt 0.245145 0.000000
vt 0.245145 0.245145
vt 0.490290 0.245145
vt 0.245145 0.245145
vt 0.245145 0.490290
vt 0.000000 0.245145
vt 0.490290 0.000000
vt 0.490290 0.490290
vt 0.000000 0.490290
vt 0.490290 0.245145
vt 0.000000 0.735436
vt 0.000000 0.000000
vt 0.245145 0.245145
vt 0.490290 0.245145
vt 0.000000 0.245145
vt 0.245145 0.490290
vt 0.000000 0.490290
vt 0.884157 0.245145
vt 0.490290 0.442078
vt 0.490290 0.835944
vt 0.884157 0.442078
vt 0.490290 0.639011
vt 0.687223 0.442078
vt 0.687223 0.245145
vt 0.442078 0.884156
vt 0.490290 0.639011
vt 0.687223 0.442078
vt 0.245145 0.884156
vt 0.687223 0.245145
vt 0.245145 0.490290
vt 0.687223 0.442078
vt 0.687223 0.835944
vt 0.245145 0.687223
vt 0.687223 0.639011
vt 0.490290 0.442078
vt 0.442078 0.687223
vt 0.442078 0.490290
vt 0.687223 0.639011
vt 0.245145 0.687223
vt 0.442078 0.687223
vt 0.490290 0.245145
vt 0.951788 0.838925
vt 0.735436 0.000000
vt 0.819506 0.706643
vt 0.819506 0.838925
vt 0.735436 0.132282
vt 0.951788 0.971207
vt 0.951788 0.706643
vt 0.819506 0.574360
vt 0.819506 0.706643
vt 0.951788 0.838925
vt 0.819506 0.838925
vt 0.867718 0.000000
vt 0.951788 0.706643
vt 0.687223 0.838925
vt 0.867718 0.132282
vt 0.819506 0.971207
vt 0.687224 0.574360
vt 0.819506 0.971207
vt 0.951788 0.574360
vt 0.687223 0.706643
vt 0.687223 0.971207
vt 0.819506 0.838925
vt 0.819506 0.706643
vt 0.490290 0.835944
vt 0.000000 0.867718
vt 0.819506 0.838925
vt 0.490290 0.968227
vt 1.000000 0.132282
vt 0.687223 0.706643
vt 0.951788 0.442078
vt 0.000000 0.735436
vt 0.687223 0.838925
vt 0.951788 0.574360
vt 1.000000 0.000000
vt 0.687223 0.442078
vt 0.622573 0.835944
vt 0.132282 0.867718
vt 0.687223 0.574360
vt 0.622573 0.968227
vt 0.867718 0.132282
vt 0.819506 0.442078
vt 0.132282 0.735436
vt 0.819506 0.574360
vt 0.867718 0.000000
s 0
f 89/253/7 90/256/7 92/262/7 91/259/7
f 91/260/8 92/263/8 96/274/8 95/271/8
f 95/272/9 96/275/9 94/268/9 93/265/9
f 93/266/10 94/269/10 90/257/10 89/254/10
f 91/261/11 95/273/11 93/267/11 89/255/11
f 96/276/12 92/264/12 90/258/12 94/270/12
f 97/277/7 98/280/7 100/286/7 99/283/7
f 99/284/8 100/287/8 104/298/8 103/295/8
f 103/296/9 104/299/9 102/292/9 101/289/9
f 101/290/10 102/293/10 98/281/10 97/278/10
f 99/285/11 103/297/11 101/291/11 97/279/11
f 104/300/12 100/288/12 98/282/12 102/294/12
f 105/301/7 106/304/7 108/309/7 107/307/7
f 107/308/8 108/309/8 112/320/8 111/317/8
f 111/318/9 112/321/9 110/314/9 109/311/9
f 109/312/10 110/315/10 106/305/10 105/302/10
f 107/308/11 111/319/11 109/313/11 105/303/11
f 112/322/12 108/310/12 106/306/12 110/316/12
f 113/323/7 114/326/7 116/332/7 115/329/7
f 115/330/8 116/333/8 120/343/8 119/341/8
f 119/341/9 120/343/9 118/338/9 117/335/9
f 117/336/10 118/339/10 114/327/10 113/324/10
f 115/331/11 119/342/11 117/337/11 113/325/11
f 120/344/12 116/334/12 114/328/12 118/340/12
